<svg xmlns="http://www.w3.org/2000/svg" xmlns:xlink="http://www.w3.org/1999/xlink" xmlns:svgjs="http://svgjs.com/svgjs" width="512" height="512" x="0" y="0" viewBox="0 0 100 100" style="enable-background:new 0 0 512 512" xml:space="preserve" class=""><g><path d="M90 90V60.7c0-14.4-3.1-25.4-19.9-25.4-8.1 0-13.5 4.4-15.7 8.6h-.2v-7.3H38.3V90h16.6V63.5c0-7 1.3-13.7 9.9-13.7 8.5 0 8.6 7.9 8.6 14.1v26H90zM11.3 36.6h16.6V90H11.3zM19.6 10c-5.3 0-9.6 4.3-9.6 9.6s4.3 9.7 9.6 9.7 9.6-4.4 9.6-9.7-4.3-9.6-9.6-9.6z" fill="#F87C56" data-original="#000000" opacity="1" class=""></path></g></svg>